# xmcd CD database file
#
# Track frame offsets:
#	150
#	12657
#	28651
#	52126
#	83364
#
# Disc length: 1331 seconds
#
# Revision: 0
# Processed by: cddbd v1.5.2PL0 Copyright (c) Steve Scherf et al.
# Submitted via: CDex 1.51
#
DISCID=36053105
DTITLE=la grande bouche - la grande bouche
DYEAR=2013
DGENRE=Jazz
TTITLE0=minor swing
TTITLE1=bossa dorado
TTITLE2=les catacombes
TTITLE3=nuages
TTITLE4=all of me
EXTD=YEAR: 2013
EXTT0=
EXTT1=
EXTT2=
EXTT3=
EXTT4=
PLAYORDER=
